<svg width="430" height="323" viewBox="0 0 430 323" fill="none" xmlns="http://www.w3.org/2000/svg">
<g clip-path="url(#clip0_3_106)">
<path d="M392.91 287.936L393.556 273.413C400.285 269.814 407.79 267.913 415.419 267.875C404.919 276.466 406.231 293.026 399.112 304.578C396.864 308.164 393.838 311.198 390.259 313.455C386.68 315.712 382.639 317.134 378.436 317.616L369.649 323C368.443 316.274 368.709 309.365 370.428 302.752C372.147 296.138 375.279 289.976 379.607 284.69C382.064 281.748 384.882 279.128 387.994 276.892C390.099 282.445 392.91 287.936 392.91 287.936Z" fill="#F2F2F2"/>
<path d="M91.2263 158.823C90.6457 158.293 90.1883 157.642 89.8864 156.916C89.5844 156.189 89.4453 155.406 89.4788 154.62C89.5123 153.834 89.7175 153.065 90.0801 152.367C90.4427 151.669 90.9538 151.06 91.5774 150.581L85.5573 132.435L95.1464 135.012L99.3931 151.849C100.128 152.951 100.433 154.284 100.251 155.595C100.069 156.907 99.412 158.106 98.4054 158.966C97.3987 159.826 96.1119 160.286 94.7887 160.26C93.4656 160.233 92.198 159.722 91.2263 158.823V158.823Z" fill="#A0616A"/>
<path d="M108.606 60.2324C110.197 61.1451 119.61 58.8836 121.449 59.5269C120.434 65.7232 125.946 63.398 119.96 71.5353C113.975 79.6726 101.919 104.07 99.18 113.189C96.4413 122.308 99.152 135.158 98.7418 139.48C98.5436 141.984 98.556 144.5 98.7788 147.002C95.5447 146.961 92.3571 147.633 89.0726 147.204C85.5698 137.286 83.2147 123.168 81.6155 115.366C80.0162 107.564 79.9577 110.863 80.6912 106.962C81.4247 103.061 81.6023 105.896 80.8318 102.164C80.0613 98.4313 83.1774 93.7419 86.0565 91.0681C87.2979 87.4952 88.9022 84.1637 90.1312 80.6281C99.1374 72.7664 99.7295 68.225 108.606 60.2324Z" fill="#6C63FF"/>
<path d="M370.268 312.936H362.311L358.526 282.225H370.27L370.268 312.936Z" fill="#FFB6B6"/>
<path d="M372.298 320.655L346.642 320.654V320.329C346.642 317.679 347.694 315.137 349.567 313.263C351.439 311.389 353.979 310.337 356.628 310.336H356.628L361.315 306.779L370.059 310.337L372.298 310.337L372.298 320.655Z" fill="#2F2E41"/>
<path d="M333.302 312.936H325.346L321.56 282.225H333.304L333.302 312.936Z" fill="#FFB6B6"/>
<path d="M335.332 320.655L309.675 320.654V320.329C309.675 317.679 310.728 315.137 312.6 313.263C314.473 311.389 317.013 310.337 319.661 310.336H319.662L324.349 306.779L333.092 310.337L335.332 310.337L335.332 320.655Z" fill="#2F2E41"/>
<path d="M329.858 145.037L381.613 146.332C391.443 151.674 391.592 163.237 388.371 176.965C388.371 176.965 389.458 185.125 387.284 187.301C385.109 189.477 384.022 189.477 385.109 193.285C386.197 197.092 380.452 203.312 381.15 204.01C381.848 204.708 383.479 208.516 383.479 208.516L378.042 239.523C378.042 239.523 374.237 293.377 373.15 294.465C372.063 295.553 370.975 294.465 372.063 297.185C373.15 299.904 374.237 298.816 373.15 299.904C372.187 300.944 371.279 302.033 370.432 303.168H357.289C357.289 303.168 356.298 297.729 356.298 297.185C356.298 296.641 355.21 293.377 355.21 292.833C355.21 292.289 356.171 291.327 356.171 291.327C356.503 290.221 356.728 289.086 356.841 287.937C356.841 286.849 360.103 244.963 360.103 244.963L353.58 190.565L337.815 243.875C337.815 243.875 337.815 290.657 336.727 291.745C335.64 292.833 335.64 292.289 336.184 294.465C336.727 296.641 338.902 296.097 337.271 297.729C335.64 299.36 335.096 296.641 335.64 299.36L336.184 302.08L319.875 302.314C319.875 302.314 317.701 297.729 318.788 296.097C319.875 294.465 319.81 294.91 318.483 292.239C317.157 289.569 316.613 289.025 317.157 288.481C317.701 287.937 317.701 285.044 317.701 285.044L320.419 232.995C320.419 232.995 320.962 178.053 320.962 176.421C321.003 175.582 320.849 174.744 320.511 173.974V171.759L322.593 163.91L329.858 145.037Z" fill="#2F2E41"/>
<path d="M360.948 37.3498C369.829 37.3498 377.029 30.1456 377.029 21.2586C377.029 12.3717 369.829 5.16748 360.948 5.16748C352.067 5.16748 344.868 12.3717 344.868 21.2586C344.868 30.1456 352.067 37.3498 360.948 37.3498Z" fill="#FFB6B6"/>
<path d="M352.908 47.9849C349.444 50.0458 347.371 53.8325 346.182 57.6857C343.979 64.8196 342.653 72.1954 342.234 79.6501L340.977 101.968L325.415 149.49C338.902 160.909 389.598 152.085 389.598 152.085C389.598 152.085 391.154 151.566 389.598 150.009C388.041 148.451 386.526 149.831 388.083 148.274C389.639 146.717 388.566 148.451 388.047 146.894C387.529 145.337 388.047 146.375 388.566 145.856C389.085 145.337 384.55 140.665 384.55 140.665L388.7 113.388L393.887 58.3662C387.663 50.5802 375.144 45.9903 375.144 45.9903L371.909 40.1641L355.736 41.4588L352.908 47.9849Z" fill="#3F3D56"/>
<path d="M350.702 11.8151C351.324 11.82 351.944 11.9013 352.546 12.0572C353.734 12.3429 354.94 12.5453 356.155 12.6629C359.878 13.0133 363.376 14.602 366.091 17.1751C368.805 19.7482 370.58 23.1574 371.131 26.8581C372.065 26.0429 374.191 24.5433 375.934 25.937C375.961 25.9591 375.976 25.9705 376.037 25.9414C377.195 25.392 379.249 18.6295 379.312 12.6752C379.344 9.51485 378.847 5.47927 376.293 4.20129L376.158 4.13396L376.123 3.9876C375.952 3.2767 374.046 2.06322 370.732 1.11873C364.71 -0.597675 355.911 -0.845812 350.856 4.07485C350.473 5.73372 349.051 6.18827 347.794 6.59066C346.402 7.03604 345.2 7.4204 345.01 9.12921C344.852 11.561 344.864 14.0009 345.045 16.431C345.516 14.944 346.442 13.6424 347.692 12.7096C348.581 12.111 349.631 11.7988 350.702 11.8151Z" fill="#2F2E41"/>
<path d="M320.772 100.726L347.039 83.8922L333.809 66.2935L320.745 82.374L280.041 84.8721C278.97 83.8131 277.615 83.0887 276.14 82.7872C274.665 82.4857 273.134 82.6202 271.734 83.1742C270.334 83.7281 269.126 84.6778 268.256 85.9072C267.386 87.1367 266.892 88.5928 266.835 90.0981C266.778 91.6034 267.16 93.0928 267.934 94.3848C268.708 95.6767 269.841 96.7153 271.195 97.374C272.549 98.0326 274.065 98.2829 275.559 98.0942C277.052 97.9056 278.459 97.2861 279.606 96.3114L320.772 100.726Z" fill="#FFB6B6"/>
<path d="M371.419 60.3957C372.944 69.6282 344.154 87.2583 344.154 87.2583C344.153 85.0913 326.97 101.451 326.194 99.6536C323.99 94.5457 322.44 82.4474 319.36 80.5109C317.598 79.4035 329.969 69.0003 329.969 69.0003C329.969 69.0003 336.445 62.4724 344.942 54.2384C347.302 51.8659 350.223 50.1294 353.433 49.1903C356.643 48.2513 360.039 48.1403 363.304 48.8678C363.304 48.8678 369.895 51.1633 371.419 60.3957Z" fill="#3F3D56"/>
<path d="M342.15 166.4C342.161 176.28 340.508 186.091 337.259 195.421C337.11 195.855 336.955 196.282 336.8 196.716C330.149 214.789 317.78 230.192 301.574 240.581C300.468 241.294 299.349 241.973 298.21 242.634C285.262 250.144 270.606 254.205 255.642 254.429C255.15 254.435 254.658 254.442 254.166 254.442C253.532 254.442 252.905 254.435 252.277 254.422C237.293 254.124 222.636 249.982 209.709 242.394C208.57 241.727 207.449 241.035 206.345 240.316C188.353 228.645 175.234 210.806 169.449 190.146C163.664 169.485 165.61 147.422 174.923 128.096C175.13 127.662 175.344 127.235 175.564 126.801C182.898 112.235 194.131 99.9939 208.009 91.4407C221.888 82.8876 237.867 78.3586 254.166 78.3586C270.466 78.3586 286.445 82.8876 300.324 91.4407C314.202 99.9939 325.435 112.235 332.769 126.801C332.989 127.235 333.203 127.662 333.41 128.096C339.182 140.038 342.17 153.135 342.15 166.4Z" fill="#F2F2F2"/>
<path d="M314.927 195.421V196.716H322.807V195.421H314.927ZM299.167 195.421V196.716H307.047V195.421H299.167ZM283.408 195.421V196.716H291.288V195.421H283.408ZM267.649 195.421V196.716H275.528V195.421H267.649ZM251.889 195.421V196.716H259.769V195.421H251.889ZM236.13 195.421V196.716H244.01V195.421H236.13ZM220.37 195.421V196.716H228.25V195.421H220.37ZM204.618 195.421V196.716H212.491V195.421H204.618ZM188.858 195.421V196.716H196.738V195.421H188.858ZM173.099 195.421V196.716H180.978V195.421H173.099ZM337.259 195.421H330.686V196.716H336.8L337.259 195.421Z" fill="#E6E6E6"/>
<path d="M330.686 186.358V187.653H338.566V186.358H330.686ZM314.927 186.358V187.653H322.807V186.358H314.927ZM299.167 186.358V187.653H307.047V186.358H299.167ZM283.408 186.358V187.653H291.288V186.358H283.408ZM267.649 186.358V187.653H275.528V186.358H267.649ZM251.889 186.358V187.653H259.769V186.358H251.889ZM236.13 186.358V187.653H244.01V186.358H236.13ZM220.37 186.358V187.653H228.25V186.358H220.37ZM204.618 186.358V187.653H212.491V186.358H204.618ZM188.858 186.358V187.653H196.738V186.358H188.858ZM173.099 186.358V187.653H180.978V186.358H173.099Z" fill="#E6E6E6"/>
<path d="M330.686 167.585V168.879H338.566V167.585H330.686ZM314.927 167.585V168.879H322.807V167.585H314.927ZM299.167 167.585V168.879H307.047V167.585H299.167ZM283.408 167.585V168.879H291.288V167.585H283.408ZM267.649 167.585V168.879H275.528V167.585H267.649ZM251.889 167.585V168.879H259.769V167.585H251.889ZM236.13 167.585V168.879H244.01V167.585H236.13ZM220.37 167.585V168.879H228.25V167.585H220.37ZM204.618 167.585V168.879H212.491V167.585H204.618ZM188.858 167.585V168.879H196.738V167.585H188.858ZM173.099 167.585V168.879H180.978V167.585H173.099Z" fill="#E6E6E6"/>
<path d="M330.686 154.637V155.932H338.566V154.637H330.686ZM314.927 154.637V155.932H322.807V154.637H314.927ZM299.167 154.637V155.932H307.047V154.637H299.167ZM283.408 154.637V155.932H291.288V154.637H283.408ZM267.649 154.637V155.932H275.528V154.637H267.649ZM251.889 154.637V155.932H259.769V154.637H251.889ZM236.13 154.637V155.932H244.01V154.637H236.13ZM220.37 154.637V155.932H228.25V154.637H220.37ZM204.618 154.637V155.932H212.491V154.637H204.618ZM188.858 154.637V155.932H196.738V154.637H188.858ZM173.099 154.637V155.932H180.978V154.637H173.099Z" fill="#E6E6E6"/>
<path d="M332.769 126.801H330.686V128.096H333.41C333.203 127.662 332.989 127.235 332.769 126.801ZM314.927 126.801V128.096H322.807V126.801H314.927ZM299.167 126.801V128.096H307.047V126.801H299.167ZM283.408 126.801V128.096H291.288V126.801H283.408ZM267.649 126.801V128.096H275.528V126.801H267.649ZM251.889 126.801V128.096H259.769V126.801H251.889ZM236.13 126.801V128.096H244.01V126.801H236.13ZM220.37 126.801V128.096H228.25V126.801H220.37ZM204.618 126.801V128.096H212.491V126.801H204.618ZM188.858 126.801V128.096H196.738V126.801H188.858ZM175.564 126.801C175.344 127.235 175.13 127.662 174.923 128.096H180.978V126.801H175.564Z" fill="#E6E6E6"/>
<path d="M301.574 131.164V240.582C300.468 241.294 299.349 241.973 298.21 242.634V131.164H301.574Z" fill="#3F3D56"/>
<path d="M255.642 167.417V254.429C255.15 254.435 254.658 254.442 254.167 254.442C253.533 254.442 252.905 254.435 252.277 254.422V167.417H255.642Z" fill="#3F3D56"/>
<path d="M209.709 131.164V242.394C208.57 241.727 207.449 241.035 206.345 240.316V131.164H209.709Z" fill="#3F3D56"/>
<path d="M44.8674 280.089L43.5842 262.229C35.1782 258.024 25.8736 255.936 16.4782 256.147C29.6962 266.37 28.6375 286.804 37.7917 300.789C40.6802 305.128 44.5076 308.762 48.9903 311.42C53.4729 314.079 58.496 315.693 63.6871 316.145L74.6877 322.478C75.946 314.155 75.3864 305.659 73.0472 297.574C70.7081 289.488 66.645 282.007 61.138 275.644C58.0133 272.105 54.4557 268.974 50.5491 266.325C48.1446 273.233 44.8674 280.089 44.8674 280.089Z" fill="#F2F2F2"/>
<path d="M299.452 139.858C306.241 139.858 311.744 134.351 311.744 127.558C311.744 120.765 306.241 115.258 299.452 115.258C292.664 115.258 287.16 120.765 287.16 127.558C287.16 134.351 292.664 139.858 299.452 139.858Z" fill="#6C63FF"/>
<path d="M305.762 122.432C305.577 122.256 305.331 122.157 305.076 122.157C304.82 122.157 304.575 122.256 304.39 122.432C301.781 124.514 299.439 126.908 297.414 129.561C296.917 128.599 296.421 127.637 295.924 126.675C295.35 125.564 293.675 126.545 294.248 127.655C294.975 129.062 295.702 130.47 296.428 131.877C296.516 132.021 296.639 132.14 296.786 132.222C296.933 132.304 297.098 132.348 297.266 132.348C297.435 132.348 297.6 132.304 297.747 132.222C297.894 132.14 298.017 132.021 298.104 131.877C300.262 128.837 302.84 126.119 305.762 123.805C305.943 123.623 306.044 123.376 306.044 123.119C306.044 122.862 305.943 122.615 305.762 122.432Z" fill="white"/>
<path d="M254.167 176.111C260.955 176.111 266.458 170.604 266.458 163.811C266.458 157.018 260.955 151.511 254.167 151.511C247.378 151.511 241.875 157.018 241.875 163.811C241.875 170.604 247.378 176.111 254.167 176.111Z" fill="#6C63FF"/>
<path d="M260.476 158.684C260.291 158.508 260.046 158.409 259.79 158.409C259.535 158.409 259.289 158.508 259.104 158.684C256.496 160.766 254.153 163.16 252.129 165.814C251.632 164.851 251.135 163.889 250.638 162.927C250.064 161.816 248.389 162.797 248.962 163.907C249.689 165.315 250.416 166.722 251.143 168.13C251.23 168.273 251.354 168.392 251.5 168.474C251.647 168.557 251.812 168.6 251.981 168.6C252.149 168.6 252.314 168.557 252.461 168.474C252.608 168.392 252.731 168.273 252.819 168.13C254.976 165.089 257.554 162.371 260.476 160.058C260.657 159.875 260.758 159.628 260.758 159.371C260.758 159.114 260.657 158.867 260.476 158.684Z" fill="white"/>
<path d="M208.234 142.448C215.023 142.448 220.526 136.941 220.526 130.148C220.526 123.355 215.023 117.848 208.234 117.848C201.445 117.848 195.942 123.355 195.942 130.148C195.942 136.941 201.445 142.448 208.234 142.448Z" fill="#6C63FF"/>
<path d="M214.544 125.022C214.359 124.845 214.113 124.747 213.858 124.747C213.602 124.747 213.356 124.845 213.172 125.022C210.563 127.103 208.221 129.497 206.196 132.151C205.699 131.189 205.202 130.226 204.705 129.264C204.132 128.153 202.456 129.135 203.03 130.244C203.757 131.652 204.483 133.059 205.21 134.467C205.298 134.61 205.421 134.729 205.568 134.811C205.715 134.894 205.88 134.937 206.048 134.937C206.216 134.937 206.382 134.894 206.529 134.811C206.675 134.729 206.798 134.61 206.886 134.467C209.043 131.426 211.622 128.709 214.544 126.395C214.724 126.212 214.826 125.965 214.826 125.708C214.826 125.451 214.724 125.204 214.544 125.022Z" fill="white"/>
<path d="M384.51 121.401L392.602 91.256L370.978 87.1599L372.141 107.851L343.729 137.125C342.225 137.064 340.735 137.442 339.442 138.212C338.148 138.983 337.107 140.114 336.445 141.467C335.783 142.82 335.528 144.336 335.713 145.831C335.897 147.326 336.512 148.736 337.483 149.887C338.453 151.038 339.738 151.882 341.179 152.316C342.621 152.749 344.158 152.754 345.602 152.328C347.046 151.903 348.335 151.066 349.313 149.921C350.29 148.775 350.913 147.369 351.105 145.875L384.51 121.401Z" fill="#FFB6B6"/>
<path d="M394.814 57.4575C402.154 63.2558 392.733 95.6891 392.733 95.6891C391.275 94.0873 389.58 117.76 387.797 116.954C382.73 114.663 373.443 106.763 369.863 107.407C367.815 107.776 369.96 91.7488 369.96 91.7488C369.96 91.7488 370.355 82.5594 371.096 70.746C371.244 67.4023 372.235 64.1504 373.976 61.2929C375.718 58.4354 378.154 56.0653 381.057 54.4032C381.057 54.4032 387.474 51.6591 394.814 57.4575Z" fill="#3F3D56"/>
<path d="M141.297 125.136L150.193 164.862L93.1862 161.314L108.688 122.299L141.297 125.136Z" fill="#A0616A"/>
<path d="M131.804 308.488L138.208 308.487L141.254 283.771H131.803L131.804 308.488Z" fill="#A0616A"/>
<path d="M129.636 305.326L139.759 304.722V309.062L149.383 315.713C149.858 316.041 150.216 316.513 150.404 317.06C150.593 317.606 150.602 318.199 150.43 318.75C150.258 319.302 149.914 319.785 149.449 320.127C148.983 320.47 148.421 320.655 147.843 320.655H135.792L133.714 316.362L132.903 320.655H128.359L129.636 305.326Z" fill="#2F2E41"/>
<path d="M71.2809 305.299L77.5394 306.658L85.7529 283.15L76.5166 281.145L71.2809 305.299Z" fill="#A0616A"/>
<path d="M69.8316 301.75L79.8524 303.307L78.9329 307.548L86.9291 316.09C87.3241 316.512 87.574 317.049 87.6423 317.623C87.7106 318.197 87.5938 318.778 87.3089 319.28C87.0239 319.783 86.5858 320.182 86.0585 320.418C85.5312 320.654 84.9423 320.715 84.3777 320.593L72.6001 318.036L71.4795 313.4L69.7774 317.423L65.3367 316.459L69.8316 301.75Z" fill="#2F2E41"/>
<path d="M151.649 198.082C147.154 222.797 146.031 233.468 146.031 233.468C146.031 233.468 149.402 237.4 147.154 239.649C144.907 241.897 147.154 246.388 147.154 246.388L142.102 300.874L138.034 300.215L128.236 298.638L124.703 298.067L126.95 246.953C126.95 246.953 124.703 242.456 125.826 241.332C126.95 240.208 124.703 233.468 124.703 233.468L121.897 180.106L104.492 238.524C104.492 238.524 106.18 240.773 104.492 242.456C102.809 244.139 99.4452 252.568 99.4452 252.568L89.0948 288.809L88.2161 291.886L82.8181 290.875L76.9431 289.77L75.8635 289.569L73.9428 289.205L72.7064 288.972L72.2858 288.897L70.2521 288.514L70.8673 285.781L71.1874 284.343L79.9434 245.427L80.1443 244.529L80.3577 243.581C80.3577 243.581 79.2341 240.773 80.9163 239.083C81.4084 238.569 81.7679 237.941 81.9636 237.256C82.1594 236.571 82.1855 235.849 82.0399 235.152C81.9848 235.093 81.9344 235.03 81.8892 234.963C81.6905 234.69 81.5535 234.377 81.4875 234.046C81.3369 233.343 81.4686 232.357 82.6048 231.22C82.9247 230.88 83.1932 230.495 83.4019 230.077C85.1092 226.842 85.9691 219.99 85.9691 219.99C85.9691 219.99 87.4881 165.717 92.4592 157.426C92.7228 156.993 98.0001 148.673 98.2763 148.503C103.888 145.137 147.606 149.787 147.606 149.787C147.606 149.787 150.253 156.905 150.373 157.646C151.019 161.81 155.459 177.116 151.649 198.082Z" fill="#2F2E41"/>
<path d="M138.365 67.3535C138.365 67.3535 139.311 62.4399 130.221 53.344C125.408 51.7389 117.071 52.6744 114.18 53.344C100.812 71.0007 103.206 67.8853 99.7263 77.7506C98.824 80.3088 98.3728 82.7667 98.7738 84.7731C100.378 92.7989 102.982 133.997 102.447 136.137C101.913 138.277 98.1699 140.953 101.913 140.953C105.656 140.953 153.923 140.107 152.854 138.502C151.785 136.897 138.365 67.3535 138.365 67.3535Z" fill="#6C63FF"/>
<path d="M195.69 132.637C194.957 132.921 194.17 133.041 193.386 132.988C192.602 132.935 191.839 132.71 191.151 132.33C190.462 131.95 189.866 131.424 189.403 130.788C188.94 130.153 188.622 129.423 188.471 128.651L169.554 125.962L176.131 118.519L193.087 122.214C194.4 122.047 195.729 122.367 196.821 123.114C197.914 123.862 198.694 124.984 199.015 126.269C199.336 127.554 199.175 128.911 198.562 130.085C197.949 131.259 196.927 132.167 195.69 132.637L195.69 132.637Z" fill="#A0616A"/>
<path d="M115.655 64.1906C117.18 63.1716 118.912 62.6931 120.307 61.3325C125.399 65.0016 125.774 59.0276 130.388 68.0147C135.003 77.0019 151.463 98.67 158.402 105.185C165.341 111.7 178.046 114.996 181.73 117.288C183.882 118.581 186.139 119.691 188.477 120.605C187 123.484 186.181 126.639 184.334 129.391C173.9 128.112 160.219 123.934 152.526 121.891C144.833 119.849 147.759 121.371 144.595 118.976C141.431 116.581 144.047 117.685 140.364 116.713C136.682 115.741 133.874 110.86 132.764 107.09C130.12 104.386 127.854 101.465 125.238 98.7893C122.215 87.2189 118.852 75.7027 115.655 64.1906Z" fill="#6C63FF"/>
<path d="M127.6 46.4958C136.151 46.4958 143.083 39.5593 143.083 31.0026C143.083 22.4459 136.151 15.5094 127.6 15.5094C119.049 15.5094 112.117 22.4459 112.117 31.0026C112.117 39.5593 119.049 46.4958 127.6 46.4958Z" fill="#A0616A"/>
<path d="M137.944 59.3234C137.21 58.2747 131.724 47.8758 130.093 43.9434C129.925 44.7949 129.819 45.6576 129.776 46.5245L129.76 46.8475L129.439 46.889C128.957 46.9506 117.569 48.3337 111.643 41.6094C108.132 37.6263 107.336 31.6518 109.273 23.8485C108.921 23.7792 108.583 23.6491 108.275 23.4639C107.763 23.1089 107.334 22.6464 107.019 22.1086C106.703 21.5707 106.509 20.9705 106.449 20.3497L106.121 20.4378C95.5774 15.304 104.661 0.285845 114.291 7.75254C115.135 7.56367 116.016 7.61431 116.834 7.89876C117.622 8.21974 118.309 8.7482 118.822 9.42814C119.334 10.1081 119.654 10.9142 119.746 11.7609C124.721 9.14204 131.306 9.5682 134.712 11.5331C136.138 12.356 136.957 13.3922 137.103 14.5483C141.125 14.7731 145.452 18.6942 145.452 24.2497V24.6366H145.065C143.447 24.671 141.868 25.1453 140.499 26.0087C139.129 26.872 138.02 28.0919 137.29 29.5377C136.301 31.3261 135.811 33.3482 135.872 35.3914C135.934 37.4347 136.544 39.4236 137.639 41.1492C138.831 42.9795 139.645 45.03 140.033 47.1799C140.421 49.3298 140.374 51.5356 139.897 53.6674L138.444 60.0374L137.944 59.3234Z" fill="#2F2E41"/>
<path d="M182.87 320.782C182.87 320.884 182.85 320.984 182.812 321.078C182.773 321.171 182.717 321.256 182.645 321.328C182.573 321.399 182.488 321.456 182.395 321.495C182.301 321.533 182.201 321.553 182.1 321.553H0.769888C0.565709 321.553 0.369891 321.472 0.225515 321.327C0.081139 321.183 3.05176e-05 320.987 3.05176e-05 320.782C3.05176e-05 320.578 0.081139 320.382 0.225515 320.238C0.369891 320.093 0.565709 320.012 0.769888 320.012H182.1C182.201 320.012 182.301 320.032 182.395 320.07C182.489 320.109 182.574 320.165 182.645 320.237C182.717 320.309 182.773 320.394 182.812 320.487C182.85 320.581 182.87 320.681 182.87 320.782Z" fill="#CCCCCC"/>
<path d="M430 320.782C430 320.884 429.981 320.984 429.942 321.078C429.903 321.171 429.847 321.256 429.775 321.328C429.704 321.399 429.619 321.456 429.525 321.495C429.432 321.533 429.331 321.553 429.23 321.553H247.9C247.696 321.553 247.5 321.472 247.356 321.327C247.211 321.183 247.13 320.987 247.13 320.782C247.13 320.578 247.211 320.382 247.356 320.238C247.5 320.093 247.696 320.012 247.9 320.012H429.23C429.331 320.012 429.432 320.032 429.525 320.07C429.619 320.109 429.704 320.165 429.775 320.237C429.847 320.309 429.903 320.394 429.942 320.487C429.981 320.581 430 320.681 430 320.782Z" fill="#CCCCCC"/>
<path d="M207.852 265.263C211.636 265.263 214.703 262.194 214.703 258.407C214.703 254.621 211.636 251.551 207.852 251.551C204.068 251.551 201 254.621 201 258.407C201 262.194 204.068 265.263 207.852 265.263Z" fill="#E6E6E6"/>
<path d="M253.784 272.384C257.568 272.384 260.636 269.315 260.636 265.528C260.636 261.742 257.568 258.672 253.784 258.672C250 258.672 246.933 261.742 246.933 265.528C246.933 269.315 250 272.384 253.784 272.384Z" fill="#E6E6E6"/>
<path d="M299.717 263.969C303.501 263.969 306.568 260.899 306.568 257.113C306.568 253.326 303.501 250.257 299.717 250.257C295.933 250.257 292.866 253.326 292.866 257.113C292.866 260.899 295.933 263.969 299.717 263.969Z" fill="#E6E6E6"/>
</g>
<defs>
<clipPath id="clip0_3_106">
<rect width="430" height="323" fill="white"/>
</clipPath>
</defs>
</svg>
