<svg width="24" height="20" viewBox="0 0 24 20" fill="none" xmlns="http://www.w3.org/2000/svg">
<path d="M8.41075 18.9995C16.713 18.9995 21.2546 12.0726 21.2546 6.0762C21.2546 5.88236 21.2546 5.68576 21.2464 5.49192C22.1306 4.8474 22.8937 4.04944 23.5 3.13543C22.6741 3.50213 21.7988 3.74381 20.9026 3.85263C21.8466 3.28446 22.5536 2.39051 22.8923 1.33691C22.0054 1.86598 21.0346 2.23738 20.0226 2.43486C19.3423 1.70524 18.4419 1.22188 17.4611 1.05967C16.4803 0.897458 15.4737 1.06544 14.5973 1.53759C13.7209 2.00974 13.0236 2.75971 12.6134 3.67134C12.2031 4.58296 12.1029 5.60536 12.3281 6.58017C10.5334 6.48956 8.77762 6.02008 7.17468 5.2022C5.57175 4.38432 4.15744 3.23629 3.0235 1.83258C2.44784 2.83372 2.27216 4.01794 2.53214 5.14477C2.79211 6.2716 3.46825 7.25656 4.42325 7.89964C3.70762 7.87516 3.00772 7.68166 2.38 7.33475V7.39705C2.38123 8.44582 2.74205 9.46199 3.40145 10.2738C4.06086 11.0856 4.9784 11.6433 5.999 11.8525C5.61161 11.96 5.21144 12.0135 4.80963 12.0117C4.52635 12.0126 4.24365 11.9862 3.96537 11.9328C4.25383 12.8356 4.8155 13.625 5.57171 14.1903C6.32793 14.7556 7.24081 15.0686 8.1825 15.0854C6.58276 16.3506 4.60668 17.0368 2.5725 17.0335C2.21407 17.035 1.85588 17.0142 1.5 16.9712C3.56458 18.2965 5.96228 19.0003 8.41075 18.9995Z" fill="white"/>
</svg>
