<svg width="383" height="362" viewBox="0 0 383 362" fill="none" xmlns="http://www.w3.org/2000/svg">
<g clip-path="url(#clip0_3_75)">
<path d="M99.6074 198.103C100.84 201.749 99.9569 205.34 97.6352 206.124C95.3136 206.908 92.4331 204.587 91.2005 200.94C90.6882 199.489 90.5308 197.937 90.7415 196.414L85.7142 180.898L93.0485 178.695L97.2259 194.225C98.3182 195.309 99.1348 196.639 99.6074 198.103Z" fill="#FFB6B6"/>
<path d="M102.687 110.227C102.687 110.227 91.6124 110.709 91.1309 116.484C90.6494 122.26 76.8934 158.282 76.8934 158.282L87.7105 191.32L96.1238 185.914L91.3162 160.084L107.542 135.456L102.687 110.227Z" fill="#A3BEA9"/>
<path d="M346.393 79.1927C346.393 56.5917 327.283 44.1587 305.453 38.27C277.465 30.7201 256.967 45.9976 264.512 79.1927C266.222 86.7161 270.312 95.5029 275.375 103.019H315.55C328.97 94.2861 346.393 96.7352 346.393 79.1927Z" fill="#A3BEA9"/>
<path d="M75.0556 344.962L80.9158 345.839L87.513 319.857L78.865 318.561L75.0556 344.962Z" fill="#FFB6B6"/>
<path d="M93.6788 359.754C93.5539 360.746 92.748 361.462 91.8788 361.353L80.2123 359.886C80.2123 359.886 79.6446 355.129 75.2135 352.555L74.0602 359.113L68.0419 358.356L70.1059 347.838C70.1059 347.838 69.2102 341.96 72.9187 339.479C76.6273 336.997 73.8684 337.061 73.8684 337.061L76.0099 330.66L84.9698 332.872L83.7397 343.188L86.8658 353.975L92.9371 357.985C93.4775 358.342 93.7689 359.037 93.6787 359.754L93.6788 359.754Z" fill="#2F2E41"/>
<path d="M146.214 346.549L152.137 346.689L155.44 320.086L146.697 319.88L146.214 346.549Z" fill="#FFB6B6"/>
<path d="M166.538 358.903C166.538 359.903 165.828 360.714 164.951 360.714H153.193C153.193 360.714 152.036 356.064 147.318 354.064L146.992 360.714H140.927L141.662 350.021C141.662 350.021 140.039 344.3 143.409 341.375C146.779 338.451 144.049 338.858 144.049 338.858L145.375 332.24L154.541 333.317L154.608 343.706L159.057 354.019L165.581 357.24C166.162 357.527 166.538 358.18 166.538 358.903L166.538 358.903Z" fill="#2F2E41"/>
<path d="M101.93 171.2L90.5148 208.904L92.5663 265.915L76.1041 324.072H89.1747L116.409 266.697L123.769 215.85L144.118 326.142H156.765L153.815 210.542L144.614 170.208L101.93 171.2Z" fill="#2F2E41"/>
<path d="M131.214 96.2873L114.835 95.295L110.368 104.225L93.9891 113.155L105.901 144.906L96.1238 188.917C96.1238 188.917 106.183 179.572 117.758 191.32C134.9 208.719 152.613 200.33 152.613 200.33L142.397 154.078L146.003 115.634C146.466 112.601 150.708 108.822 147.805 107.825L135.681 102.737L131.214 96.2873H131.214Z" fill="#A3BEA9"/>
<path d="M127.598 101.931H108.008C108.037 100.601 107.842 99.2795 107.439 98.0823C107.427 99.4109 107.225 100.722 106.845 101.931H105.956C104.595 101.929 103.492 100.335 103.49 98.3666C98.8868 93.2562 99.4906 86.9863 103.49 79.9601C103.491 70.948 108.82 57.438 114.611 63.0913C114.797 63.0772 117.733 61.1973 117.92 61.1973C123.014 61.2032 124.766 67.8504 126.304 74.8724C128.057 73.7044 129.265 78.5799 130.139 87.1613C130.394 89.6655 130.62 92.4853 130.824 95.5627C131.385 98.1447 130.393 100.896 128.607 101.708C128.28 101.857 127.939 101.933 127.597 101.934L127.598 101.931L127.598 101.931Z" fill="#2F2E41"/>
<path d="M123.594 94.0221C131.544 94.0221 137.989 87.5799 137.989 79.6331C137.989 71.6863 131.544 65.2441 123.594 65.2441C115.644 65.2441 109.199 71.6863 109.199 79.6331C109.199 87.5799 115.644 94.0221 123.594 94.0221Z" fill="#FFB6B6"/>
<path d="M124.969 102.418C123.621 104.215 121.262 104.93 119.142 104.185L112.731 101.931C112.131 101.931 111.621 101.579 111.593 101.124L111.589 101.074C111.525 100.125 109.772 99.9656 109.365 100.864C109.201 101.225 109.015 101.582 108.806 101.931H107.644V73.9316C107.644 69.1292 112.771 65.2361 119.094 65.2361H119.094C124.493 65.2361 129.158 68.1003 130.29 72.1095C130.29 72.1095 138.315 79.5857 133.585 83.7889C128.855 87.9921 135.737 91.4133 135.737 91.4133C137.103 96.2567 132.759 104.129 126.608 105.732C125.884 105.921 125.737 102.418 124.969 102.418V102.418Z" fill="#2F2E41"/>
<path d="M141.529 77.4963C140.939 78.3342 139.396 80.5311 134.585 80.1931C133.359 80.1049 129.006 78.9075 125.839 78.9663C123.739 79.0031 122.446 78.9883 119.861 78.9663C116.805 78.9369 115.969 78.8781 115.378 78.2313C114.235 76.9744 115.177 74.74 114.631 74.5563C114.175 74.4019 112.995 75.7837 112.39 77.4963C111.119 81.0905 115.677 86.0959 116.125 90.7265C116.604 95.7172 111.897 86.1547 112.39 90.7265C112.943 95.8715 114.923 95.482 114.9 97.3415C114.893 97.6209 114.81 97.8634 114.631 98.0765C114.474 98.2677 114.317 98.3411 111.643 98.8116C108.445 99.3775 106.838 99.6568 106.412 99.5466C105.314 99.2673 104.201 97.7164 103.424 96.6065C102.139 94.791 103.05 96.6212 103.424 94.4015C103.782 92.2552 104.903 91.976 104.918 89.9914C104.933 87.4924 103.162 86.7354 101.929 84.1114C99.6506 79.2603 101.877 73.6449 102.677 71.6162C103.061 70.6434 103.757 69.4121 104.978 67.3778C105.957 65.7446 107.258 64.3059 108.844 63.228C111.221 61.6123 113.982 60.5053 116.967 60.0667C118.602 59.8264 120.27 59.9526 121.877 60.3325L126.041 61.3168C127.792 61.7305 129.442 62.4803 130.897 63.5232C132.253 63.5277 133.428 64.3899 133.893 65.643C133.942 65.7741 133.986 65.8505 134.023 65.8393C141.529 63.5311 141.524 70.3676 141.442 74.6382C141.433 75.0753 141.449 75.4622 141.506 75.7764V75.7984C141.656 76.6437 141.693 77.2611 141.529 77.4963L141.529 77.4963Z" fill="#2F2E41"/>
<path d="M53.1827 350.606C51.9412 350.684 51.255 349.142 52.1943 348.243L52.2877 347.872C52.2755 347.842 52.2632 347.813 52.2508 347.783C50.9923 344.784 48.7389 347.615 45.4915 347.816C40.7157 348.113 40.787 351.723 42.6371 355.945C43.1394 357.091 38.876 347.844 38.876 341.636C38.876 340.076 38.9614 338.517 39.136 336.961C39.2797 335.688 39.4776 334.424 39.7338 333.17C41.1194 326.396 44.1198 319.944 48.4476 314.555C50.5281 313.419 52.2631 311.642 53.3111 309.512C53.6876 308.743 56.9223 308.095 57.0621 307.253C56.8253 307.284 53.2296 303.502 53.4082 303.281C53.0782 302.78 52.4876 302.532 52.1273 302.043C50.335 299.614 47.8658 300.038 46.5768 303.339C43.8231 304.728 43.7964 307.032 45.4861 309.248C46.561 310.658 46.7087 312.565 47.6519 314.074C47.5549 314.198 47.454 314.319 47.3569 314.443C47.3196 314.491 47.2824 314.539 47.2454 314.587C45.7229 316.556 42.683 316.051 41.8352 313.711C41.7733 313.541 41.2486 322.785 41.6434 313.217C42.0383 303.649 38.5954 308.519 36.8524 306.313C34.7705 303.677 30.5354 304.875 30.1685 308.213C30.165 308.245 30.1616 308.277 30.1582 308.309C30.416 308.454 30.6685 308.609 30.9152 308.772C32.321 309.701 31.8346 311.88 30.1688 312.136L30.1311 312.142C30.2242 313.069 30.3834 313.989 30.6162 314.893C28.3922 323.49 33.192 326.623 40.047 326.765L40.4042 327.273C39.7551 329.14 39.2329 331.052 38.841 332.988C38.4723 334.784 38.2161 336.6 38.0725 338.424L38.0665 338.502C37.9476 340.053 35.984 340.713 34.9971 339.51C34.746 339.203 34.4889 338.935 34.2299 338.722C31.2578 336.282 27.0588 335.383 23.8525 333.422C22.3091 332.477 20.3313 333.698 20.6006 335.486L20.6137 335.572C21.0912 335.766 21.5569 335.991 22.0072 336.243C22.2652 336.389 22.5179 336.543 22.7647 336.706C24.1708 337.636 23.684 339.815 22.0177 340.071L21.98 340.076C21.9528 340.08 21.9295 340.084 21.9024 340.088L21.9271 340.146C22.999 342.667 25.5612 344.3 28.2973 344.15C31.5179 343.974 35.5183 346.666 39.0468 351.425L39.0506 351.425C39.7493 354.466 40.7701 357.438 42.0821 360.271H52.9113C52.9501 360.15 52.9851 360.026 53.02 359.906C52.0186 359.968 51.0094 359.91 50.0235 359.727C50.827 358.742 51.6304 357.749 52.4339 356.763C52.4533 356.744 52.4688 356.724 52.4843 356.705C52.8919 356.201 53.3033 355.7 53.7109 355.196L53.7111 355.195C53.7366 353.647 53.5509 352.104 53.183 350.606L53.1827 350.606L53.1827 350.606Z" fill="#F2F2F2"/>
<path d="M0 361.285C0 361.682 0.318521 362 0.715166 362H217.832C218.229 362 218.547 361.682 218.547 361.285C218.547 360.889 218.229 360.57 217.832 360.57H0.715166C0.318521 360.57 0 360.889 0 361.285Z" fill="#CCCCCC"/>
<path d="M325.687 18.923V82.5958C325.687 88.2266 321.104 92.8075 315.47 92.8075H251.77C246.136 92.8075 241.554 88.2266 241.554 82.5958V18.923C241.554 13.2921 246.136 8.7113 251.77 8.7113H315.47C321.104 8.7113 325.687 13.2921 325.687 18.923ZM315.47 91.6061C320.449 91.6061 324.485 87.572 324.485 82.5958V50.4945C324.485 28.0818 306.308 9.91268 283.885 9.91268H251.77C246.791 9.91268 242.756 13.9467 242.756 18.923V82.5958C242.756 87.572 246.791 91.6061 251.77 91.6061H315.47Z" fill="#3F3D56"/>
<path d="M276.075 142.058H255.51C254.991 142.058 254.569 141.636 254.569 141.118C254.569 140.6 254.991 140.178 255.51 140.178H276.075C276.593 140.178 277.015 140.6 277.015 141.118C277.015 141.636 276.593 142.058 276.075 142.058V142.058Z" fill="#3F3D56"/>
<path d="M371.025 1.87962H350.46C349.941 1.87962 349.519 1.45794 349.519 0.939708C349.519 0.421478 349.941 0 350.46 0H371.025C371.543 0 371.965 0.421478 371.965 0.939708C371.965 1.45794 371.543 1.87961 371.025 1.87961V1.87962Z" fill="#3F3D56"/>
<path d="M371.025 21.9208H350.46C349.941 21.9208 349.519 21.4991 349.519 20.9808C349.519 20.4626 349.941 20.0411 350.46 20.0411H371.025C371.543 20.0411 371.965 20.4626 371.965 20.9808C371.965 21.4991 371.543 21.9207 371.025 21.9207V21.9208Z" fill="#3F3D56"/>
<path d="M382.06 11.9067H339.424C338.906 11.9067 338.484 11.485 338.484 10.9668C338.484 10.4486 338.906 10.0271 339.424 10.0271H382.06C382.578 10.0271 383 10.4486 383 10.9668C383 11.485 382.578 11.9067 382.06 11.9067V11.9067Z" fill="#3F3D56"/>
<path d="M339.499 158.883H250.577C245.27 158.883 240.953 154.567 240.953 149.263V116.844C240.953 111.54 245.27 107.224 250.577 107.224H339.499C344.806 107.224 349.124 111.54 349.124 116.844V149.263C349.124 154.567 344.806 158.883 339.499 158.883ZM250.577 108.425C245.933 108.425 242.155 112.202 242.155 116.844V149.263C242.155 153.905 245.933 157.682 250.577 157.682H339.499C344.143 157.682 347.922 153.905 347.922 149.263V116.844C347.922 112.202 344.143 108.425 339.499 108.425H250.577Z" fill="#3F3D56"/>
<path d="M373.64 103.019H362.908C344.703 103.019 329.893 88.2156 329.893 70.0196V59.2923C329.893 55.5808 332.914 52.5615 336.627 52.5615H373.64C377.352 52.5615 380.373 55.5808 380.373 59.2923V96.2885C380.373 99.9999 377.352 103.019 373.64 103.019ZM336.627 53.7629C333.572 53.7629 331.095 56.2384 331.095 59.292V70.0196C331.095 87.5813 345.338 101.818 362.907 101.818H373.64C376.695 101.818 379.171 99.3424 379.171 96.2888V72.7247C379.171 62.2524 370.678 53.7629 360.201 53.7629H336.627Z" fill="#3F3D56"/>
<path d="M154.102 201.886C154.381 205.724 156.588 208.692 159.032 208.515C161.476 208.337 163.231 205.081 162.951 201.241C162.861 199.706 162.404 198.214 161.618 196.892L160.232 180.642L152.617 181.455L154.792 197.388C154.206 198.811 153.969 200.353 154.102 201.886Z" fill="#FFB6B6"/>
<path d="M142.444 107.224C142.444 107.224 153.519 107.705 154 113.481C154.482 119.256 159.778 156.315 159.778 156.315L162.186 193.375L153.519 194.818L142.998 151.021L142.444 107.224H142.444Z" fill="#A3BEA9"/>
<path d="M304.852 121.917C307.137 117.563 310.034 114.421 313.227 112.029H275.598C285.283 125.858 298.126 134.733 304.852 121.917Z" fill="#A3BEA9"/>
</g>
<defs>
<clipPath id="clip0_3_75">
<rect width="383" height="362" fill="white"/>
</clipPath>
</defs>
</svg>
